<?xml version="1.0" encoding="UTF-8"?>
<!DOCTYPE svg PUBLIC "-//W3C//DTD SVG 1.1//EN" "http://www.w3.org/Graphics/SVG/1.1/DTD/svg11.dtd">
<svg xmlns="http://www.w3.org/2000/svg" version="1.1" width="512px" height="512px" style="shape-rendering:geometricPrecision; text-rendering:geometricPrecision; image-rendering:optimizeQuality; fill-rule:evenodd; clip-rule:evenodd" xmlns:xlink="http://www.w3.org/1999/xlink">
<g><path style="opacity:0.956" fill="#fe992d" d="M 168.5,24.5 C 168.082,25.2216 167.416,25.7216 166.5,26C 172.73,31.6975 178.064,37.5308 182.5,43.5C 168.077,39.9191 154.744,42.2524 142.5,50.5C 139.167,46.1667 135.833,41.8333 132.5,37.5C 142.955,29.2343 154.955,24.901 168.5,24.5 Z"/></g>
<g><path style="opacity:0.961" fill="#fe9d2d" d="M 168.5,24.5 C 201.775,26.61 221.942,43.9433 229,76.5C 231.358,93.7453 227.191,109.079 216.5,122.5C 212.14,118.806 208.14,114.806 204.5,110.5C 216.04,91.3896 214.873,73.0563 201,55.5C 195.445,50.4246 189.279,46.4246 182.5,43.5C 178.064,37.5308 172.73,31.6975 166.5,26C 167.416,25.7216 168.082,25.2216 168.5,24.5 Z"/></g>
<g><path style="opacity:0.971" fill="#ffb831" d="M 401.5,96.5 C 396.527,90.8604 391.194,85.5271 385.5,80.5C 380.678,58.3475 367.011,45.3475 344.5,41.5C 344.611,40.8826 344.944,40.3826 345.5,40C 340.605,34.936 335.605,30.1026 330.5,25.5C 361.806,22.0648 384.306,34.3981 398,62.5C 402.245,73.5261 403.412,84.8594 401.5,96.5 Z"/></g>
<g><path style="opacity:0.971" fill="#ffb230" d="M 330.5,25.5 C 335.605,30.1026 340.605,34.936 345.5,40C 344.944,40.3826 344.611,40.8826 344.5,41.5C 332.523,41.6027 321.856,45.2694 312.5,52.5C 308.167,49.1667 303.833,45.8333 299.5,42.5C 307.881,33.4724 318.214,27.8057 330.5,25.5 Z"/></g>
<g><path style="opacity:0.97" fill="#fe932c" d="M 132.5,37.5 C 135.833,41.8333 139.167,46.1667 142.5,50.5C 134.865,57.4548 129.532,65.7882 126.5,75.5C 126.657,74.1266 126.49,72.7932 126,71.5C 122.298,67.6295 118.464,63.9629 114.5,60.5C 116.297,54.9053 119.13,49.9053 123,45.5C 125.747,42.2463 128.914,39.5797 132.5,37.5 Z"/></g>
<g><path style="opacity:0.962" fill="#ffab30" d="M 299.5,42.5 C 303.833,45.8333 308.167,49.1667 312.5,52.5C 305.712,60.0797 301.045,68.7463 298.5,78.5C 293.833,74.1667 289.167,69.8333 284.5,65.5C 287.536,56.4808 292.536,48.8142 299.5,42.5 Z"/></g>
<g><path style="opacity:0.959" fill="#fea52f" d="M 284.5,65.5 C 289.167,69.8333 293.833,74.1667 298.5,78.5C 296.922,99.854 305.589,115.354 324.5,125C 331.884,127.966 339.551,129.133 347.5,128.5C 352.534,132.533 356.867,137.2 360.5,142.5C 331.858,150.342 308.691,142.342 291,118.5C 281.035,101.791 278.868,84.1244 284.5,65.5 Z"/></g>
<g><path style="opacity:0.958" fill="#fe902c" d="M 143.5,76.5 C 152.671,76.1754 156.171,80.5088 154,89.5C 148.667,94.8333 143.333,94.8333 138,89.5C 136.099,83.3431 137.932,79.0098 143.5,76.5 Z"/></g>
<g><path style="opacity:0.945" fill="#fe942c" d="M 166.5,76.5 C 176.579,76.5587 179.912,81.2254 176.5,90.5C 171.017,94.7604 165.85,94.4271 161,89.5C 159.099,83.3431 160.932,79.0098 166.5,76.5 Z"/></g>
<g><path style="opacity:0.919" fill="#fe972d" d="M 189.5,76.5 C 200.684,77.0421 203.684,82.2088 198.5,92C 188.067,95.8844 183.234,92.3844 184,81.5C 185.352,79.251 187.185,77.5844 189.5,76.5 Z"/></g>
<g><path style="opacity:0.918" fill="#ffab30" d="M 315.5,76.5 C 327.204,76.7482 330.204,81.9149 324.5,92C 314.768,95.8986 309.935,92.732 310,82.5C 311.36,79.9774 313.193,77.9774 315.5,76.5 Z"/></g>
<g><path style="opacity:0.908" fill="#ffb130" d="M 362.5,76.5 C 371.671,76.1754 375.171,80.5088 373,89.5C 367.667,94.8333 362.333,94.8333 357,89.5C 355.099,83.3431 356.932,79.0098 362.5,76.5 Z"/></g>
<g><path style="opacity:0.935" fill="#ffae2f" d="M 339.5,76.5 C 348.671,76.1754 352.171,80.5088 350,89.5C 346.692,93.3271 342.526,94.4937 337.5,93C 330.612,86.5178 331.279,81.0178 339.5,76.5 Z"/></g>
<g><path style="opacity:0.962" fill="#ffb230" d="M 385.5,80.5 C 391.194,85.5271 396.527,90.8604 401.5,96.5C 400.398,102.306 398.398,107.806 395.5,113C 399.024,119.904 399.857,127.07 398,134.5C 397.623,135.942 396.79,136.942 395.5,137.5C 391.441,132.438 386.774,128.105 381.5,124.5C 380.101,120.628 379.101,116.628 378.5,112.5C 379.747,106.665 381.581,100.999 384,95.5C 385.16,90.5658 385.66,85.5658 385.5,80.5 Z"/></g>
<g><path style="opacity:0.97" fill="#fe8a2b" d="M 114.5,60.5 C 118.464,63.9629 122.298,67.6295 126,71.5C 126.49,72.7932 126.657,74.1266 126.5,75.5C 125.668,80.4808 125.502,85.4808 126,90.5C 127.896,97.9468 130.063,105.28 132.5,112.5C 131.525,116.891 130.692,121.224 130,125.5C 134.163,123.876 138.496,122.876 143,122.5C 149.125,124.318 155.292,126.151 161.5,128C 168.942,128.848 176.276,128.348 183.5,126.5C 183.389,127.117 183.056,127.617 182.5,128C 186.369,132.037 190.369,135.87 194.5,139.5C 186.677,143.835 178.177,145.835 169,145.5C 159.648,145.73 150.815,143.73 142.5,139.5C 137.398,141.067 132.232,142.4 127,143.5C 116.009,141.846 111.009,135.513 112,124.5C 112.785,120.523 113.951,116.689 115.5,113C 106.677,95.5487 106.344,78.0487 114.5,60.5 Z"/></g>
<g><path style="opacity:0.964" fill="#fe932c" d="M 204.5,110.5 C 208.14,114.806 212.14,118.806 216.5,122.5C 210.934,130.393 203.601,136.059 194.5,139.5C 190.369,135.87 186.369,132.037 182.5,128C 183.056,127.617 183.389,127.117 183.5,126.5C 191.762,122.864 198.762,117.531 204.5,110.5 Z"/></g>
<g><path style="opacity:0.959" fill="#ffab2f" d="M 381.5,124.5 C 386.774,128.105 391.441,132.438 395.5,137.5C 392.778,141.446 388.945,143.446 384,143.5C 378.768,142.4 373.602,141.067 368.5,139.5C 365.965,140.9 363.298,141.9 360.5,142.5C 356.867,137.2 352.534,132.533 347.5,128.5C 353.06,127.369 358.394,125.535 363.5,123C 369.586,122.157 375.42,122.991 381,125.5C 381.399,125.272 381.565,124.938 381.5,124.5 Z"/></g>
<g><path style="opacity:0.955" fill="#fe982d" d="M 283.5,188.5 C 278.893,185.232 274.559,181.565 270.5,177.5C 276.085,164.835 272.418,156.002 259.5,151C 255.016,150.269 250.682,150.769 246.5,152.5C 242.167,148.833 238.167,144.833 234.5,140.5C 244.131,133.537 254.797,131.703 266.5,135C 285.177,143.185 292.677,157.351 289,177.5C 288.19,181.787 286.357,185.454 283.5,188.5 Z"/></g>
<g><path style="opacity:0.967" fill="#fe912c" d="M 234.5,140.5 C 238.167,144.833 242.167,148.833 246.5,152.5C 234.288,163.314 234.621,173.814 247.5,184C 256.911,187.543 264.578,185.376 270.5,177.5C 274.559,181.565 278.893,185.232 283.5,188.5C 274.439,200.52 262.439,205.02 247.5,202C 226.423,194.914 217.923,180.414 222,158.5C 223.96,150.896 228.126,144.896 234.5,140.5 Z"/></g>
<g><path style="opacity:0.96" fill="#fd7a29" d="M 105.5,215.5 C 100.807,211.139 96.1406,206.805 91.5,202.5C 107.158,197.848 111.324,188.181 104,173.5C 93.7303,163.905 84.0636,164.572 75,175.5C 73.8638,177.743 73.0305,180.076 72.5,182.5C 68.1082,178.103 63.4416,174.103 58.5,170.5C 68.2008,152.761 82.8675,146.594 102.5,152C 123.695,162.977 129.862,179.477 121,201.5C 117.538,208.132 112.371,212.799 105.5,215.5 Z"/></g>
<g><path style="opacity:0.956" fill="#fd7428" d="M 58.5,170.5 C 63.4416,174.103 68.1082,178.103 72.5,182.5C 72.6912,195.024 79.0246,201.691 91.5,202.5C 96.1406,206.805 100.807,211.139 105.5,215.5C 88.7249,222.684 74.2249,219.35 62,205.5C 54.9375,194.416 53.7709,182.749 58.5,170.5 Z"/></g>
<g><path style="opacity:0.959" fill="#fea62e" d="M 389.5,170.5 C 393.798,174.296 397.964,178.296 402,182.5C 402.232,181.263 402.732,180.263 403.5,179.5C 402.214,193.542 408.547,201.208 422.5,202.5C 426.897,206.892 430.897,211.558 434.5,216.5C 414.674,223.17 399.507,217.504 389,199.5C 387.307,194.754 386.14,189.92 385.5,185C 385.986,179.845 387.32,175.011 389.5,170.5 Z"/></g>
<g><path style="opacity:0.96" fill="#ffad30" d="M 434.5,216.5 C 430.897,211.558 426.897,206.892 422.5,202.5C 436.583,198.333 441.083,189.333 436,175.5C 428.392,166.049 419.558,164.549 409.5,171C 407.098,173.671 405.098,176.505 403.5,179.5C 402.732,180.263 402.232,181.263 402,182.5C 397.964,178.296 393.798,174.296 389.5,170.5C 395.497,157.319 405.831,150.319 420.5,149.5C 439.033,150.844 450.533,160.511 455,178.5C 457.299,196.243 450.466,208.909 434.5,216.5 Z"/></g>
<g><path style="opacity:0.962" fill="#fe892b" d="M 266.5,211.5 C 270.167,215.833 274.167,219.833 278.5,223.5C 272.829,232.015 267.329,240.682 262,249.5C 257.667,252.167 253.333,252.167 249,249.5C 243.874,240.745 238.374,232.245 232.5,224C 226.833,223.333 221.167,223.333 215.5,224C 211.582,225.083 209.248,227.583 208.5,231.5C 207.883,231.611 207.383,231.944 207,232.5C 202.964,228.296 198.798,224.296 194.5,220.5C 197.729,214.773 202.396,210.607 208.5,208C 219.107,206.431 229.774,206.097 240.5,207C 241.931,207.465 243.097,208.299 244,209.5C 247.671,215.326 251.504,220.993 255.5,226.5C 258.932,221.293 262.598,216.293 266.5,211.5 Z"/></g>
<g><path style="opacity:0.969" fill="#fe922c" d="M 319.5,258.5 C 318.698,259.952 318.198,261.618 318,263.5C 312.965,258.297 307.798,253.297 302.5,248.5C 302.925,241.385 302.425,234.385 301,227.5C 299.421,225.959 297.587,224.792 295.5,224C 289.843,223.501 284.176,223.334 278.5,223.5C 274.167,219.833 270.167,215.833 266.5,211.5C 266.916,209.248 268.249,207.748 270.5,207C 279.833,206.333 289.167,206.333 298.5,207C 308.894,209.726 315.727,216.226 319,226.5C 319.5,237.161 319.667,247.828 319.5,258.5 Z"/></g>
<g><path style="opacity:0.97" fill="#fd7f29" d="M 194.5,220.5 C 198.798,224.296 202.964,228.296 207,232.5C 207.383,231.944 207.883,231.611 208.5,231.5C 208.5,244.833 208.5,258.167 208.5,271.5C 221.167,271.5 233.833,271.5 246.5,271.5C 251.297,276.798 256.297,281.965 261.5,287C 252.99,287.171 244.657,287.671 236.5,288.5C 223.829,288.667 211.162,288.5 198.5,288C 196.481,287.55 194.648,286.717 193,285.5C 191.358,265.923 191.025,246.256 192,226.5C 192.573,224.359 193.406,222.359 194.5,220.5 Z"/></g>
<g><path style="opacity:0.948" fill="#fd7027" d="M 125.5,315.5 C 120.202,310.703 115.035,305.703 110,300.5C 109.817,297.635 109.317,294.969 108.5,292.5C 108.968,277.07 108.468,261.737 107,246.5C 106.097,245.299 104.931,244.465 103.5,244C 94.8333,243.333 86.1667,243.333 77.5,244C 73.175,246.118 71.175,249.618 71.5,254.5C 70.6909,256.292 70.1909,258.292 70,260.5C 65.2979,255.63 60.4646,250.963 55.5,246.5C 57.2995,237.732 62.2995,231.566 70.5,228C 82.4422,226.419 94.4422,226.085 106.5,227C 116,229.833 122.167,236 125,245.5C 125.5,268.831 125.667,292.164 125.5,315.5 Z"/></g>
<g><path style="opacity:0.913" fill="#fe9f2e" d="M 406.5,226.5 C 411.297,231.798 416.297,236.965 421.5,242C 424.365,242.183 427.031,242.683 429.5,243.5C 422.159,243.334 414.826,243.5 407.5,244C 406.069,244.465 404.903,245.299 404,246.5C 402.552,256.061 402.052,265.727 402.5,275.5C 401.674,270.684 401.174,265.684 401,260.5C 396.333,255.833 391.667,251.167 387,246.5C 386.617,247.056 386.117,247.389 385.5,247.5C 388.167,236.167 395.167,229.167 406.5,226.5 Z"/></g>
<g><path style="opacity:0.943" fill="#fea42f" d="M 406.5,226.5 C 416.506,226.334 426.506,226.5 436.5,227C 447.867,229.703 454.367,236.869 456,248.5C 456.5,262.163 456.667,275.829 456.5,289.5C 455.674,285.018 455.174,280.351 455,275.5C 449.965,270.297 444.798,265.297 439.5,260.5C 439.79,256.064 439.29,251.73 438,247.5C 435.859,244.679 433.025,243.346 429.5,243.5C 427.031,242.683 424.365,242.183 421.5,242C 416.297,236.965 411.297,231.798 406.5,226.5 Z"/></g>
<g><path style="opacity:0.966" fill="#fe982d" d="M 402.5,275.5 C 402.5,281.833 402.5,288.167 402.5,294.5C 401.675,298.647 401.175,302.981 401,307.5C 395.965,302.297 390.798,297.297 385.5,292.5C 385.5,277.5 385.5,262.5 385.5,247.5C 386.117,247.389 386.617,247.056 387,246.5C 391.667,251.167 396.333,255.833 401,260.5C 401.174,265.684 401.674,270.684 402.5,275.5 Z"/></g>
<g><path style="opacity:0.987" fill="#fe8c2b" d="M 302.5,248.5 C 307.798,253.297 312.965,258.297 318,263.5C 318.198,261.618 318.698,259.952 319.5,258.5C 319.666,266.84 319.5,275.173 319,283.5C 317.728,286.222 315.561,287.556 312.5,287.5C 308.818,287.665 305.152,287.499 301.5,287C 296.297,281.965 291.297,276.798 286.5,271.5C 291.833,271.5 297.167,271.5 302.5,271.5C 302.5,263.833 302.5,256.167 302.5,248.5 Z"/></g>
<g><path style="opacity:0.999" fill="#fea62f" d="M 488.5,308.5 C 483.167,303.5 477.833,298.5 472.5,293.5C 472.333,279.829 472.5,266.163 473,252.5C 478,247.167 483,247.167 488,252.5C 488.5,271.164 488.667,289.83 488.5,308.5 Z"/></g>
<g><path style="opacity:1" fill="#fd6126" d="M 38.5,313.5 C 33.1667,308.5 27.8333,303.5 22.5,298.5C 22.3334,283.163 22.5001,267.83 23,252.5C 28,247.167 33,247.167 38,252.5C 38.5,272.831 38.6666,293.164 38.5,313.5 Z"/></g>
<g><path style="opacity:0.957" fill="#fe9f2e" d="M 439.5,260.5 C 444.798,265.297 449.965,270.297 455,275.5C 455.174,280.351 455.674,285.018 456.5,289.5C 456.5,298.167 456.5,306.833 456.5,315.5C 451.202,310.703 446.035,305.703 441,300.5C 440.814,297.964 440.314,295.631 439.5,293.5C 439.5,282.5 439.5,271.5 439.5,260.5 Z"/></g>
<g><path style="opacity:0.996" fill="#fe862b" d="M 246.5,271.5 C 259.833,271.5 273.167,271.5 286.5,271.5C 291.297,276.798 296.297,281.965 301.5,287C 305.152,287.499 308.818,287.665 312.5,287.5C 287.339,288.498 262.005,288.831 236.5,288.5C 244.657,287.671 252.99,287.171 261.5,287C 256.297,281.965 251.297,276.798 246.5,271.5 Z"/></g>
<g><path style="opacity:0.952" fill="#fd6226" d="M 55.5,246.5 C 60.4646,250.963 65.2979,255.63 70,260.5C 70.1909,258.292 70.6909,256.292 71.5,254.5C 71.5,285.167 71.5,315.833 71.5,346.5C 66.202,341.703 61.0354,336.703 56,331.5C 55.8138,328.964 55.3138,326.631 54.5,324.5C 54.1848,298.455 54.5181,272.455 55.5,246.5 Z"/></g>
<g><path style="opacity:0.945" fill="#fc6726" d="M 108.5,292.5 C 109.317,294.969 109.817,297.635 110,300.5C 115.035,305.703 120.202,310.703 125.5,315.5C 125.5,321.167 125.5,326.833 125.5,332.5C 131.167,332.5 136.833,332.5 142.5,332.5C 147.297,337.798 152.297,342.965 157.5,348C 155.618,348.198 153.952,348.698 152.5,349.5C 139.496,349.667 126.496,349.5 113.5,349C 111.274,347.773 109.774,345.939 109,343.5C 108.5,326.503 108.333,309.503 108.5,292.5 Z"/></g>
<g><path style="opacity:0.932" fill="#fe922c" d="M 385.5,292.5 C 390.798,297.297 395.965,302.297 401,307.5C 401.175,302.981 401.675,298.647 402.5,294.5C 402.667,310.837 402.5,327.17 402,343.5C 401.722,344.416 401.222,345.082 400.5,345.5C 395.869,341.37 391.369,337.037 387,332.5C 386.814,329.964 386.314,327.631 385.5,325.5C 385.5,314.5 385.5,303.5 385.5,292.5 Z"/></g>
<g><path style="opacity:0.944" fill="#fe982d" d="M 439.5,293.5 C 440.314,295.631 440.814,297.964 441,300.5C 446.035,305.703 451.202,310.703 456.5,315.5C 456.817,330.911 456.483,346.245 455.5,361.5C 450.167,356.5 444.833,351.5 439.5,346.5C 439.5,328.833 439.5,311.167 439.5,293.5 Z"/></g>
<g><path style="opacity:1" fill="#fe9f2e" d="M 472.5,293.5 C 477.833,298.5 483.167,303.5 488.5,308.5C 488.5,321.5 488.5,334.5 488.5,347.5C 483.167,342.5 477.833,337.5 472.5,332.5C 472.5,319.5 472.5,306.5 472.5,293.5 Z"/></g>
<g><path style="opacity:0.948" fill="#fd7228" d="M 184.5,301.5 C 186.969,302.317 189.635,302.817 192.5,303C 197.703,308.035 202.703,313.202 207.5,318.5C 187.408,318.976 167.408,318.476 147.5,317C 142.768,310.772 143.768,305.772 150.5,302C 161.828,301.5 173.162,301.333 184.5,301.5 Z"/></g>
<g><path style="opacity:0.948" fill="#fd7929" d="M 184.5,301.5 C 195.5,301.5 206.5,301.5 217.5,301.5C 221.982,302.326 226.649,302.826 231.5,303C 236.703,308.035 241.703,313.202 246.5,318.5C 233.5,318.5 220.5,318.5 207.5,318.5C 202.703,313.202 197.703,308.035 192.5,303C 189.635,302.817 186.969,302.317 184.5,301.5 Z"/></g>
<g><path style="opacity:0.944" fill="#fd7f29" d="M 217.5,301.5 C 239.5,301.5 261.5,301.5 283.5,301.5C 281.708,302.309 279.708,302.809 277.5,303C 282.703,308.035 287.703,313.202 292.5,318.5C 282.833,318.5 273.167,318.5 263.5,318.5C 263.5,323.833 263.5,329.167 263.5,334.5C 258.167,329.5 252.833,324.5 247.5,319.5C 247.5,318.833 247.167,318.5 246.5,318.5C 241.703,313.202 236.703,308.035 231.5,303C 226.649,302.826 221.982,302.326 217.5,301.5 Z"/></g>
<g><path style="opacity:0.934" fill="#fe8c2b" d="M 316.5,301.5 C 331.17,301.333 345.837,301.5 360.5,302C 365.904,304.083 367.737,307.916 366,313.5C 365.167,315.667 363.667,317.167 361.5,318C 349.505,318.5 337.505,318.667 325.5,318.5C 327.292,317.691 329.292,317.191 331.5,317C 326.297,311.965 321.297,306.798 316.5,301.5 Z"/></g>
<g><path style="opacity:0.99" fill="#fe862b" d="M 283.5,301.5 C 294.5,301.5 305.5,301.5 316.5,301.5C 321.297,306.798 326.297,311.965 331.5,317C 329.292,317.191 327.292,317.691 325.5,318.5C 314.5,318.5 303.5,318.5 292.5,318.5C 287.703,313.202 282.703,308.035 277.5,303C 279.708,302.809 281.708,302.309 283.5,301.5 Z"/></g>
<g><path style="opacity:1" fill="#fd7929" d="M 247.5,319.5 C 252.833,324.5 258.167,329.5 263.5,334.5C 263.5,347.5 263.5,360.5 263.5,373.5C 258.167,368.5 252.833,363.5 247.5,358.5C 247.5,345.5 247.5,332.5 247.5,319.5 Z"/></g>
<g><path style="opacity:0.958" fill="#fe8c2b" d="M 385.5,325.5 C 386.314,327.631 386.814,329.964 387,332.5C 391.369,337.037 395.869,341.37 400.5,345.5C 400.063,347.074 399.063,348.241 397.5,349C 386.172,349.5 374.838,349.667 363.5,349.5C 358.703,344.202 353.703,339.035 348.5,334C 345.635,333.817 342.969,333.317 340.5,332.5C 355.5,332.5 370.5,332.5 385.5,332.5C 385.5,330.167 385.5,327.833 385.5,325.5 Z"/></g>
<g><path style="opacity:0.979" fill="#fd5b24" d="M 54.5,324.5 C 55.3138,326.631 55.8138,328.964 56,331.5C 61.0354,336.703 66.202,341.703 71.5,346.5C 69.1328,361.466 75.4662,367.8 90.5,365.5C 95.5,370.833 100.5,376.167 105.5,381.5C 94.495,381.667 83.495,381.5 72.5,381C 62.7177,377.55 56.8844,370.717 55,360.5C 54.5001,348.505 54.3335,336.505 54.5,324.5 Z"/></g>
<g><path style="opacity:0.968" fill="#fd6d27" d="M 142.5,332.5 C 155.837,332.333 169.171,332.5 182.5,333C 192.624,334.81 199.124,340.643 202,350.5C 202.5,364.496 202.667,378.496 202.5,392.5C 197.202,387.703 192.035,382.703 187,377.5C 186.617,378.056 186.117,378.389 185.5,378.5C 185.666,370.16 185.5,361.827 185,353.5C 184.167,352.667 183.333,351.833 182.5,351C 172.605,349.551 162.605,349.051 152.5,349.5C 153.952,348.698 155.618,348.198 157.5,348C 152.297,342.965 147.297,337.798 142.5,332.5 Z"/></g>
<g><path style="opacity:0.958" fill="#fd862a" d="M 340.5,332.5 C 342.969,333.317 345.635,333.817 348.5,334C 353.703,339.035 358.703,344.202 363.5,349.5C 352.495,349.333 341.495,349.5 330.5,350C 329.016,350.662 327.683,351.496 326.5,352.5C 322.435,348.441 318.768,344.107 315.5,339.5C 322.666,333.62 330.999,331.287 340.5,332.5 Z"/></g>
<g><path style="opacity:0.998" fill="#fe992d" d="M 472.5,332.5 C 477.833,337.5 483.167,342.5 488.5,347.5C 488.801,362.548 488.468,377.548 487.5,392.5C 482.224,388.563 477.224,384.229 472.5,379.5C 472.5,363.833 472.5,348.167 472.5,332.5 Z"/></g>
<g><path style="opacity:0.983" fill="#fc5524" d="M 22.5,298.5 C 27.8333,303.5 33.1667,308.5 38.5,313.5C 38.0292,337.899 38.5292,362.232 40,386.5C 40.8333,387.333 41.6667,388.167 42.5,389C 50.8267,389.5 59.16,389.666 67.5,389.5C 69.9686,390.317 72.6353,390.817 75.5,391C 83.0351,398.702 90.7017,406.202 98.5,413.5C 98.6666,426.837 98.4999,440.171 98,453.5C 92.9646,448.297 87.798,443.297 82.5,438.5C 82.5,427.833 82.5,417.167 82.5,406.5C 68.1628,406.667 53.8295,406.5 39.5,406C 31.073,403.905 25.573,398.739 23,390.5C 22.5,359.835 22.3334,329.168 22.5,298.5 Z"/></g>
<g><path style="opacity:0.987" fill="#fd7f29" d="M 315.5,339.5 C 318.768,344.107 322.435,348.441 326.5,352.5C 325.515,369.089 325.182,385.756 325.5,402.5C 324.686,400.369 324.186,398.036 324,395.5C 318.965,390.297 313.798,385.297 308.5,380.5C 308.334,370.494 308.5,360.494 309,350.5C 310.172,346.142 312.339,342.475 315.5,339.5 Z"/></g>
<g><path style="opacity:0.971" fill="#fe932c" d="M 439.5,346.5 C 444.833,351.5 450.167,356.5 455.5,361.5C 453.045,372.956 446.045,379.622 434.5,381.5C 430.228,375.89 425.562,370.557 420.5,365.5C 435.534,367.8 441.867,361.466 439.5,346.5 Z"/></g>
<g><path style="opacity:1" fill="#fd7328" d="M 247.5,358.5 C 252.833,363.5 258.167,368.5 263.5,373.5C 263.5,386.833 263.5,400.167 263.5,413.5C 258.167,408.5 252.833,403.5 247.5,398.5C 247.5,385.167 247.5,371.833 247.5,358.5 Z"/></g>
<g><path style="opacity:0.977" fill="#fd6326" d="M 90.5,365.5 C 115.836,365.333 141.169,365.5 166.5,366C 168.049,367.214 169.215,368.714 170,370.5C 170.5,393.498 170.667,416.498 170.5,439.5C 169.698,440.952 169.198,442.618 169,444.5C 163.965,439.297 158.798,434.297 153.5,429.5C 153.5,413.5 153.5,397.5 153.5,381.5C 137.5,381.5 121.5,381.5 105.5,381.5C 100.5,376.167 95.5,370.833 90.5,365.5 Z"/></g>
<g><path style="opacity:0.996" fill="#fe862b" d="M 380.5,365.5 C 385.5,370.833 390.5,376.167 395.5,381.5C 382.656,381.171 369.989,381.505 357.5,382.5C 352.5,377.833 347.5,373.167 342.5,368.5C 342.953,367.542 343.619,366.708 344.5,366C 356.495,365.5 368.495,365.333 380.5,365.5 Z"/></g>
<g><path style="opacity:0.999" fill="#fe8c2b" d="M 380.5,365.5 C 393.833,365.5 407.167,365.5 420.5,365.5C 425.562,370.557 430.228,375.89 434.5,381.5C 421.5,381.5 408.5,381.5 395.5,381.5C 390.5,376.167 385.5,370.833 380.5,365.5 Z"/></g>
<g><path style="opacity:0.944" fill="#fd7f29" d="M 342.5,368.5 C 347.5,373.167 352.5,377.833 357.5,382.5C 357.5,399.833 357.5,417.167 357.5,434.5C 356.686,432.369 356.186,430.036 356,427.5C 351.333,422.833 346.667,418.167 342,413.5C 341.817,410.635 341.317,407.969 340.5,405.5C 340.333,393.829 340.5,382.162 341,370.5C 341.278,369.584 341.778,368.918 342.5,368.5 Z"/></g>
<g><path style="opacity:0.951" fill="#fe922c" d="M 472.5,379.5 C 477.224,384.229 482.224,388.563 487.5,392.5C 481.786,403.192 472.786,407.859 460.5,406.5C 455.703,401.202 450.703,396.035 445.5,391C 442.635,390.817 439.969,390.317 437.5,389.5C 447.839,389.666 458.172,389.5 468.5,389C 471.288,386.477 472.621,383.31 472.5,379.5 Z"/></g>
<g><path style="opacity:0.98" fill="#fd7929" d="M 308.5,380.5 C 313.798,385.297 318.965,390.297 324,395.5C 324.186,398.036 324.686,400.369 325.5,402.5C 325.5,415.5 325.5,428.5 325.5,441.5C 324.686,439.369 324.186,437.036 324,434.5C 318.965,429.297 313.798,424.297 308.5,419.5C 308.5,406.5 308.5,393.5 308.5,380.5 Z"/></g>
<g><path style="opacity:0.963" fill="#fc5b25" d="M 67.5,389.5 C 92.2564,389.019 116.923,389.519 141.5,391C 144.803,394.795 145.303,398.962 143,403.5C 142.097,404.701 140.931,405.535 139.5,406C 125.994,406.169 112.66,406.669 99.5,407.5C 98.5386,409.265 98.2053,411.265 98.5,413.5C 90.7017,406.202 83.0351,398.702 75.5,391C 72.6353,390.817 69.9686,390.317 67.5,389.5 Z"/></g>
<g><path style="opacity:0.972" fill="#fe862a" d="M 411.5,389.5 C 409.708,390.309 407.708,390.809 405.5,391C 413.035,398.702 420.702,406.202 428.5,413.5C 428.5,426.833 428.5,440.167 428.5,453.5C 423.202,448.703 418.035,443.703 413,438.5C 412.83,427.659 412.33,416.992 411.5,406.5C 398.163,406.667 384.829,406.5 371.5,406C 366.391,402.634 365.224,398.134 368,392.5C 368.903,391.299 370.069,390.465 371.5,390C 384.829,389.5 398.163,389.333 411.5,389.5 Z"/></g>
<g><path style="opacity:0.974" fill="#fe8c2b" d="M 411.5,389.5 C 420.167,389.5 428.833,389.5 437.5,389.5C 439.969,390.317 442.635,390.817 445.5,391C 450.703,396.035 455.703,401.202 460.5,406.5C 449.833,406.5 439.167,406.5 428.5,406.5C 428.5,408.833 428.5,411.167 428.5,413.5C 420.702,406.202 413.035,398.702 405.5,391C 407.708,390.809 409.708,390.309 411.5,389.5 Z"/></g>
<g><path style="opacity:1" fill="#fd6d27" d="M 247.5,398.5 C 252.833,403.5 258.167,408.5 263.5,413.5C 263.5,426.833 263.5,440.167 263.5,453.5C 258.167,448.5 252.833,443.5 247.5,438.5C 247.5,425.167 247.5,411.833 247.5,398.5 Z"/></g>
<g><path style="opacity:0.946" fill="#fd7929" d="M 340.5,405.5 C 341.317,407.969 341.817,410.635 342,413.5C 346.667,418.167 351.333,422.833 356,427.5C 356.186,430.036 356.686,432.369 357.5,434.5C 357.828,445.346 357.494,456.013 356.5,466.5C 351.535,462.037 346.702,457.37 342,452.5C 341.814,449.964 341.314,447.631 340.5,445.5C 340.5,432.167 340.5,418.833 340.5,405.5 Z"/></g>
<g><path style="opacity:0.917" fill="#fd812a" d="M 411.5,406.5 C 412.33,416.992 412.83,427.659 413,438.5C 418.035,443.703 423.202,448.703 428.5,453.5C 428.5,458.833 428.5,464.167 428.5,469.5C 442.171,469.333 455.837,469.5 469.5,470C 474.069,472.541 475.569,476.375 474,481.5C 472.891,483.815 471.057,485.315 468.5,486C 452.837,486.5 437.17,486.667 421.5,486.5C 419.031,485.683 416.365,485.183 413.5,485C 408.297,479.965 403.297,474.798 398.5,469.5C 402.833,469.5 407.167,469.5 411.5,469.5C 411.5,448.5 411.5,427.5 411.5,406.5 Z"/></g>
<g><path style="opacity:0.959" fill="#fd6226" d="M 202.5,392.5 C 202.667,417.836 202.5,443.169 202,468.5C 201.626,470.491 200.793,472.158 199.5,473.5C 194.558,469.897 189.892,465.897 185.5,461.5C 185.5,433.833 185.5,406.167 185.5,378.5C 186.117,378.389 186.617,378.056 187,377.5C 192.035,382.703 197.202,387.703 202.5,392.5 Z"/></g>
<g><path style="opacity:0.968" fill="#fd7228" d="M 308.5,419.5 C 313.798,424.297 318.965,429.297 324,434.5C 324.186,437.036 324.686,439.369 325.5,441.5C 325.334,449.174 325.5,456.841 326,464.5C 331.04,471.393 335.707,471.06 340,463.5C 340.499,457.509 340.666,451.509 340.5,445.5C 341.314,447.631 341.814,449.964 342,452.5C 346.702,457.37 351.535,462.037 356.5,466.5C 353.8,479.023 345.967,485.69 333,486.5C 320.984,485.813 312.984,479.813 309,468.5C 308.5,452.17 308.333,435.837 308.5,419.5 Z"/></g>
<g><path style="opacity:0.959" fill="#fd5a24" d="M 153.5,429.5 C 158.798,434.297 163.965,439.297 169,444.5C 169.198,442.618 169.698,440.952 170.5,439.5C 170.059,448.276 170.559,456.942 172,465.5C 175.664,470.395 179.664,470.728 184,466.5C 185.009,464.975 185.509,463.308 185.5,461.5C 189.892,465.897 194.558,469.897 199.5,473.5C 193.918,482.958 185.584,487.125 174.5,486C 163.439,483.939 156.606,477.439 154,466.5C 153.5,454.171 153.333,441.838 153.5,429.5 Z"/></g>
<g><path style="opacity:0.968" fill="#fc4d23" d="M 99.5,407.5 C 99.5,428.167 99.5,448.833 99.5,469.5C 113.171,469.333 126.837,469.5 140.5,470C 144.788,473.771 145.621,478.271 143,483.5C 141.581,484.46 140.081,485.293 138.5,486C 106.5,486.667 74.5,486.667 42.5,486C 37.0758,483.983 35.2425,480.15 37,474.5C 37.8333,472.333 39.3333,470.833 41.5,470C 55.1626,469.5 68.8293,469.333 82.5,469.5C 82.5,459.167 82.5,448.833 82.5,438.5C 87.798,443.297 92.9646,448.297 98,453.5C 98.4999,440.171 98.6666,426.837 98.5,413.5C 98.2053,411.265 98.5386,409.265 99.5,407.5 Z"/></g>
<g><path style="opacity:0.964" fill="#fc6626" d="M 247.5,438.5 C 252.833,443.5 258.167,448.5 263.5,453.5C 263.5,458.833 263.5,464.167 263.5,469.5C 273.839,469.334 284.172,469.5 294.5,470C 301.492,476.342 300.825,481.675 292.5,486C 267.833,486.667 243.167,486.667 218.5,486C 210.175,481.675 209.508,476.342 216.5,470C 226.828,469.5 237.161,469.334 247.5,469.5C 247.5,459.167 247.5,448.833 247.5,438.5 Z"/></g>
<g><path style="opacity:0.93" fill="#fc7928" d="M 398.5,469.5 C 403.297,474.798 408.297,479.965 413.5,485C 416.365,485.183 419.031,485.683 421.5,486.5C 405.163,486.667 388.83,486.5 372.5,486C 366.905,483.646 365.072,479.479 367,473.5C 368.167,472.333 369.333,471.167 370.5,470C 379.827,469.5 389.161,469.334 398.5,469.5 Z"/></g>
</svg>
